<?xml version="1.0" encoding="UTF-8" standalone="no"?>
<svg
   version="1.0"
   width="500.000000pt"
   height="500.000000pt"
   viewBox="0 0 500.000000 500.000000"
   preserveAspectRatio="xMidYMid meet"
   id="svg10"
   sodipodi:docname="light.svg"
   inkscape:version="1.1.1 (3bf5ae0d25, 2021-09-20, custom)"
   xmlns:inkscape="http://www.inkscape.org/namespaces/inkscape"
   xmlns:sodipodi="http://sodipodi.sourceforge.net/DTD/sodipodi-0.dtd"
   xmlns="http://www.w3.org/2000/svg"
   xmlns:svg="http://www.w3.org/2000/svg">
  <defs
     id="defs14" />
  <sodipodi:namedview
     id="namedview12"
     pagecolor="#ffffff"
     bordercolor="#666666"
     borderopacity="1.0"
     inkscape:pageshadow="2"
     inkscape:pageopacity="0.0"
     inkscape:pagecheckerboard="0"
     inkscape:document-units="pt"
     showgrid="false"
     inkscape:zoom="0.945"
     inkscape:cx="288.35979"
     inkscape:cy="260.31746"
     inkscape:window-width="2560"
     inkscape:window-height="1367"
     inkscape:window-x="1440"
     inkscape:window-y="461"
     inkscape:window-maximized="1"
     inkscape:current-layer="g8" />
  <g
     transform="translate(0.000000,500.000000) scale(0.100000,-0.100000)"
     fill="#000000"
     stroke="none"
     id="g8">
    <path
       d="M3218 3720 c-116 -24 -148 -35 -249 -85 -144 -71 -292 -183 -324 -246 -33 -63 -9 -133 54 -159 47 -19 92 -5 137 41 58 61 151 124 246 168 263 123 588 94 822 -73 181 -129 311 -339 346 -556 78 -500 -314 -960 -820 -960 -261 0 -508 121 -661 323 -80 107 -123 201 -163 360 -42 166 -80 254 -161 377 -101 153 -239 274 -415 362 -237 120 -541 139 -799 52 -323 -110 -561 -352 -671 -682 -82 -247 -62 -533 54 -778 135 -285 404 -501 712 -573 127 -29 375 -30 488 -1 181 46 352 139 478 261 37 35 70 76 73 92 16 65 -36 137 -100 137 -47 0 -67 -11 -141 -79 -189 -173 -472 -248 -732 -195 -235 47 -458 220 -571 441 -66 131 -101 337 -81 481 47 343 298 622 633 702 112 27 285 27 393 0 124 -31 271 -110 360 -193 137 -127 214 -262 259 -451 32 -131 53 -193 95 -276 114 -226 315 -412 552 -509 143 -58 235 -75 403 -74 128 0 165 4 250 26 349 91 642 366 749 702 42 134 49 191 44 367 -6 181 -26 271 -92 411 -147 308 -442 534 -773 592 -115 20 -286 18 -395 -5z"
       id="path2"
       style="fill:#ffaaaa;fill-opacity:0.99592882" />
    <path
       d="M3255 3320 c-136 -36 -242 -97 -325 -186 -133 -142 -192 -292 -191 -483 0 -195 62 -341 201 -482 70 -71 101 -94 172 -128 48 -23 123 -50 167 -59 75 -15 82 -15 115 1 73 34 86 130 25 181 -17 14 -41 26 -54 26 -40 0 -154 46 -211 85 -55 38 -118 113 -152 180 -31 63 -45 144 -40 238 4 73 10 96 41 159 62 126 173 219 302 253 164 42 323 -3 456 -132 75 -72 115 -86 166 -59 40 20 67 76 57 119 -13 62 -133 175 -248 233 -143 73 -330 94 -481 54z"
       id="path4"
       style="fill:#ff0000" />
    <path
       d="M1721 2946 c-33 -18 -50 -53 -50 -101 -1 -51 18 -73 100 -118 117 -64 202 -170 234 -292 65 -249 -79 -494 -334 -569 -134 -39 -306 -1 -412 93 -57 49 -80 61 -123 61 -72 0 -124 -81 -96 -150 30 -73 231 -196 366 -225 433 -92 834 230 834 670 0 261 -146 501 -374 615 -64 32 -107 37 -145 16z"
       id="path6"
       style="fill:#ff0000" />
  </g>
</svg>
